<svg width="200" height="200" viewBox="0 0 200 200" fill="none" xmlns="http://www.w3.org/2000/svg">
  <defs>
    <linearGradient id="bronzeGrad" x1="0" y1="0" x2="1" y2="1">
      <stop offset="0%" stop-color="#F5C6A5"/><stop offset="100%" stop-color="#8C4A2F"/>
    </linearGradient>
    <linearGradient id="bronzeInner" x1="0" y1="0" x2="1" y2="1">
      <stop offset="0%" stop-color="#FFE0CC"/><stop offset="100%" stop-color="#B87333"/>
    </linearGradient>
    <filter id="bronzeShadow">
      <feDropShadow dx="0" dy="6" stdDeviation="6" flood-color="#000" flood-opacity="0.3"/>
    </filter>
  </defs>
  <polygon points="100,20 115,35 140,35 155,55 155,80 170,100 155,120 155,145 140,165 115,165 100,180 85,165 60,165 45,145 45,120 30,100 45,80 45,55 60,35 85,35" fill="url(#bronzeGrad)" filter="url(#bronzeShadow)"/>
  <circle cx="100" cy="100" r="35" fill="url(#bronzeInner)"/>
  <circle cx="100" cy="100" r="15" fill="#fff3e6" opacity="0.9"/>
  <line x1="100" y1="65" x2="100" y2="85" stroke="#8C4A2F" stroke-width="3"/>
  <line x1="100" y1="115" x2="100" y2="135" stroke="#8C4A2F" stroke-width="3"/>
  <line x1="65" y1="100" x2="85" y2="100" stroke="#8C4A2F" stroke-width="3"/>
  <line x1="115" y1="100" x2="135" y2="100" stroke="#8C4A2F" stroke-width="3"/>
  <text x="100" y="195" text-anchor="middle" font-size="16" font-family="Arial,sans-serif" fill="#5A2E1F" font-weight="bold">BRONZE</text>
</svg>
